<svg xmlns="http://www.w3.org/2000/svg" version="1.1" xmlns:xlink="http://www.w3.org/1999/xlink" xmlns:svgjs="http://svgjs.dev/svgjs" width="1440" height="560" preserveAspectRatio="none" viewBox="0 0 1440 560"><g mask="url(&quot;#SvgjsMask1000&quot;)" fill="none"><rect width="1440" height="560" x="0" y="0" fill="#0e2a47"></rect><path d="M-89.68 360.39L-89.68 360.39" stroke="#132e65" stroke-width="1.5"></path><path d="M-89.68 360.39L-70.53 526.06" stroke="#132e65" stroke-width="1.5"></path><path d="M-89.68 360.39L78.67 404.16" stroke="#132e65" stroke-width="1.5"></path><path d="M-89.68 360.39L80.35 550.91" stroke="#132e65" stroke-width="1.5"></path><path d="M-89.68 360.39L-73.19 641.16" stroke="#132e65" stroke-width="1.5"></path><path d="M-89.68 360.39L238.93 375.26" stroke="#132e65" stroke-width="1.5"></path><path d="M-70.53 526.06L-70.53 526.06" stroke="#132e65" stroke-width="1.5"></path><path d="M-70.53 526.06L-73.19 641.16" stroke="#132e65" stroke-width="1.5"></path><path d="M-70.53 526.06L80.35 550.91" stroke="#132e65" stroke-width="1.5"></path><path d="M-73.19 641.16L-73.19 641.16" stroke="#132e65" stroke-width="1.5"></path><path d="M-73.19 641.16L43.14 700.66" stroke="#132e65" stroke-width="1.5"></path><path d="M-73.19 641.16L80.35 550.91" stroke="#132e65" stroke-width="1.5"></path><path d="M-73.19 641.16L78.67 404.16" stroke="#132e65" stroke-width="1.5"></path><path d="M78.67 404.16L78.67 404.16" stroke="#132e65" stroke-width="1.5"></path><path d="M78.67 404.16L80.35 550.91" stroke="#132e65" stroke-width="1.5"></path><path d="M78.67 404.16L238.93 375.26" stroke="#132e65" stroke-width="1.5"></path><path d="M80.35 550.91L80.35 550.91" stroke="#132e65" stroke-width="1.5"></path><path d="M43.14 700.66L43.14 700.66" stroke="#132e65" stroke-width="1.5"></path><path d="M43.14 700.66L80.35 550.91" stroke="#132e65" stroke-width="1.5"></path><path d="M43.14 700.66L216.12 678.76" stroke="#132e65" stroke-width="1.5"></path><path d="M43.14 700.66L-70.53 526.06" stroke="#132e65" stroke-width="1.5"></path><path d="M238.93 375.26L238.93 375.26" stroke="#132e65" stroke-width="1.5"></path><path d="M238.93 375.26L253.44 489.14" stroke="#132e65" stroke-width="1.5"></path><path d="M238.93 375.26L384.35 388.27" stroke="#132e65" stroke-width="1.5"></path><path d="M238.93 375.26L380.45 511.99" stroke="#132e65" stroke-width="1.5"></path><path d="M238.93 375.26L80.35 550.91" stroke="#132e65" stroke-width="1.5"></path><path d="M253.44 489.14L253.44 489.14" stroke="#132e65" stroke-width="1.5"></path><path d="M253.44 489.14L380.45 511.99" stroke="#132e65" stroke-width="1.5"></path><path d="M253.44 489.14L384.35 388.27" stroke="#132e65" stroke-width="1.5"></path><path d="M253.44 489.14L80.35 550.91" stroke="#132e65" stroke-width="1.5"></path><path d="M253.44 489.14L216.12 678.76" stroke="#132e65" stroke-width="1.5"></path><path d="M216.12 678.76L216.12 678.76" stroke="#132e65" stroke-width="1.5"></path><path d="M216.12 678.76L383.21 705.33" stroke="#132e65" stroke-width="1.5"></path><path d="M216.12 678.76L80.35 550.91" stroke="#132e65" stroke-width="1.5"></path><path d="M384.35 388.27L384.35 388.27" stroke="#132e65" stroke-width="1.5"></path><path d="M384.35 388.27L380.45 511.99" stroke="#132e65" stroke-width="1.5"></path><path d="M384.35 388.27L547.27 381.04" stroke="#132e65" stroke-width="1.5"></path><path d="M380.45 511.99L380.45 511.99" stroke="#132e65" stroke-width="1.5"></path><path d="M383.21 705.33L383.21 705.33" stroke="#132e65" stroke-width="1.5"></path><path d="M383.21 705.33L529.08 707.74" stroke="#132e65" stroke-width="1.5"></path><path d="M383.21 705.33L380.45 511.99" stroke="#132e65" stroke-width="1.5"></path><path d="M383.21 705.33L253.44 489.14" stroke="#132e65" stroke-width="1.5"></path><path d="M547.27 381.04L547.27 381.04" stroke="#132e65" stroke-width="1.5"></path><path d="M547.27 381.04L553.09 501.69" stroke="#132e65" stroke-width="1.5"></path><path d="M547.27 381.04L691.41 390.8" stroke="#132e65" stroke-width="1.5"></path><path d="M547.27 381.04L680.06 489.18" stroke="#132e65" stroke-width="1.5"></path><path d="M547.27 381.04L380.45 511.99" stroke="#132e65" stroke-width="1.5"></path><path d="M547.27 381.04L809.69 503.51" stroke="#132e65" stroke-width="1.5"></path><path d="M553.09 501.69L553.09 501.69" stroke="#132e65" stroke-width="1.5"></path><path d="M553.09 501.69L680.06 489.18" stroke="#132e65" stroke-width="1.5"></path><path d="M553.09 501.69L380.45 511.99" stroke="#132e65" stroke-width="1.5"></path><path d="M529.08 707.74L529.08 707.74" stroke="#132e65" stroke-width="1.5"></path><path d="M529.08 707.74L683.21 705.73" stroke="#132e65" stroke-width="1.5"></path><path d="M529.08 707.74L553.09 501.69" stroke="#132e65" stroke-width="1.5"></path><path d="M529.08 707.74L380.45 511.99" stroke="#132e65" stroke-width="1.5"></path><path d="M691.41 390.8L691.41 390.8" stroke="#132e65" stroke-width="1.5"></path><path d="M691.41 390.8L680.06 489.18" stroke="#132e65" stroke-width="1.5"></path><path d="M691.41 390.8L809.69 503.51" stroke="#132e65" stroke-width="1.5"></path><path d="M691.41 390.8L857.06 343.8" stroke="#132e65" stroke-width="1.5"></path><path d="M680.06 489.18L680.06 489.18" stroke="#132e65" stroke-width="1.5"></path><path d="M683.21 705.73L683.21 705.73" stroke="#132e65" stroke-width="1.5"></path><path d="M683.21 705.73L680.06 489.18" stroke="#132e65" stroke-width="1.5"></path><path d="M861.41 222.79L861.41 222.79" stroke="#132e65" stroke-width="1.5"></path><path d="M861.41 222.79L957.71 203.26" stroke="#132e65" stroke-width="1.5"></path><path d="M861.41 222.79L857.06 343.8" stroke="#132e65" stroke-width="1.5"></path><path d="M861.41 222.79L949.12 338.28" stroke="#132e65" stroke-width="1.5"></path><path d="M861.41 222.79L939.91 52.64" stroke="#132e65" stroke-width="1.5"></path><path d="M861.41 222.79L691.41 390.8" stroke="#132e65" stroke-width="1.5"></path><path d="M857.06 343.8L857.06 343.8" stroke="#132e65" stroke-width="1.5"></path><path d="M857.06 343.8L949.12 338.28" stroke="#132e65" stroke-width="1.5"></path><path d="M809.69 503.51L809.69 503.51" stroke="#132e65" stroke-width="1.5"></path><path d="M809.69 503.51L680.06 489.18" stroke="#132e65" stroke-width="1.5"></path><path d="M939.91 52.64L939.91 52.64" stroke="#132e65" stroke-width="1.5"></path><path d="M939.91 52.64L957.71 203.26" stroke="#132e65" stroke-width="1.5"></path><path d="M939.91 52.64L1096.8 111.87" stroke="#132e65" stroke-width="1.5"></path><path d="M939.91 52.64L1111 -75.59" stroke="#132e65" stroke-width="1.5"></path><path d="M939.91 52.64L1126.85 262.08" stroke="#132e65" stroke-width="1.5"></path><path d="M939.91 52.64L949.12 338.28" stroke="#132e65" stroke-width="1.5"></path><path d="M957.71 203.26L957.71 203.26" stroke="#132e65" stroke-width="1.5"></path><path d="M957.71 203.26L949.12 338.28" stroke="#132e65" stroke-width="1.5"></path><path d="M949.12 338.28L949.12 338.28" stroke="#132e65" stroke-width="1.5"></path><path d="M949.12 338.28L1104.93 351.55" stroke="#132e65" stroke-width="1.5"></path><path d="M1011.4 556.14L1011.4 556.14" stroke="#132e65" stroke-width="1.5"></path><path d="M1011.4 556.14L988.32 638.35" stroke="#132e65" stroke-width="1.5"></path><path d="M1011.4 556.14L1089.04 495.16" stroke="#132e65" stroke-width="1.5"></path><path d="M1011.4 556.14L1101.81 689.2" stroke="#132e65" stroke-width="1.5"></path><path d="M988.32 638.35L988.32 638.35" stroke="#132e65" stroke-width="1.5"></path><path d="M988.32 638.35L1101.81 689.2" stroke="#132e65" stroke-width="1.5"></path><path d="M988.32 638.35L1089.04 495.16" stroke="#132e65" stroke-width="1.5"></path><path d="M988.32 638.35L809.69 503.51" stroke="#132e65" stroke-width="1.5"></path><path d="M988.32 638.35L1280.35 686.18" stroke="#132e65" stroke-width="1.5"></path><path d="M988.32 638.35L949.12 338.28" stroke="#132e65" stroke-width="1.5"></path><path d="M1111 -75.59L1111 -75.59" stroke="#132e65" stroke-width="1.5"></path><path d="M1111 -75.59L1278.38 -104.22" stroke="#132e65" stroke-width="1.5"></path><path d="M1111 -75.59L1096.8 111.87" stroke="#132e65" stroke-width="1.5"></path><path d="M1096.8 111.87L1096.8 111.87" stroke="#132e65" stroke-width="1.5"></path><path d="M1096.8 111.87L1126.85 262.08" stroke="#132e65" stroke-width="1.5"></path><path d="M1096.8 111.87L957.71 203.26" stroke="#132e65" stroke-width="1.5"></path><path d="M1096.8 111.87L1263.56 62.71" stroke="#132e65" stroke-width="1.5"></path><path d="M1096.8 111.87L1274.46 217.89" stroke="#132e65" stroke-width="1.5"></path><path d="M1126.85 262.08L1126.85 262.08" stroke="#132e65" stroke-width="1.5"></path><path d="M1126.85 262.08L1104.93 351.55" stroke="#132e65" stroke-width="1.5"></path><path d="M1126.85 262.08L1274.46 217.89" stroke="#132e65" stroke-width="1.5"></path><path d="M1126.85 262.08L1264.42 355.62" stroke="#132e65" stroke-width="1.5"></path><path d="M1126.85 262.08L957.71 203.26" stroke="#132e65" stroke-width="1.5"></path><path d="M1126.85 262.08L949.12 338.28" stroke="#132e65" stroke-width="1.5"></path><path d="M1104.93 351.55L1104.93 351.55" stroke="#132e65" stroke-width="1.5"></path><path d="M1104.93 351.55L1089.04 495.16" stroke="#132e65" stroke-width="1.5"></path><path d="M1089.04 495.16L1089.04 495.16" stroke="#132e65" stroke-width="1.5"></path><path d="M1101.81 689.2L1101.81 689.2" stroke="#132e65" stroke-width="1.5"></path><path d="M1101.81 689.2L1280.35 686.18" stroke="#132e65" stroke-width="1.5"></path><path d="M1101.81 689.2L1089.04 495.16" stroke="#132e65" stroke-width="1.5"></path><path d="M1278.38 -104.22L1278.38 -104.22" stroke="#132e65" stroke-width="1.5"></path><path d="M1278.38 -104.22L1263.56 62.71" stroke="#132e65" stroke-width="1.5"></path><path d="M1278.38 -104.22L1451.18 -44.68" stroke="#132e65" stroke-width="1.5"></path><path d="M1263.56 62.71L1263.56 62.71" stroke="#132e65" stroke-width="1.5"></path><path d="M1263.56 62.71L1274.46 217.89" stroke="#132e65" stroke-width="1.5"></path><path d="M1263.56 62.71L1420.03 63.36" stroke="#132e65" stroke-width="1.5"></path><path d="M1263.56 62.71L1111 -75.59" stroke="#132e65" stroke-width="1.5"></path><path d="M1263.56 62.71L1451.18 -44.68" stroke="#132e65" stroke-width="1.5"></path><path d="M1274.46 217.89L1274.46 217.89" stroke="#132e65" stroke-width="1.5"></path><path d="M1274.46 217.89L1264.42 355.62" stroke="#132e65" stroke-width="1.5"></path><path d="M1274.46 217.89L1434.72 231.41" stroke="#132e65" stroke-width="1.5"></path><path d="M1264.42 355.62L1264.42 355.62" stroke="#132e65" stroke-width="1.5"></path><path d="M1264.42 355.62L1104.93 351.55" stroke="#132e65" stroke-width="1.5"></path><path d="M1264.42 355.62L1437.36 362.05" stroke="#132e65" stroke-width="1.5"></path><path d="M1280.35 686.18L1280.35 686.18" stroke="#132e65" stroke-width="1.5"></path><path d="M1280.35 686.18L1449.09 646.12" stroke="#132e65" stroke-width="1.5"></path><path d="M1280.35 686.18L1401.63 523.61" stroke="#132e65" stroke-width="1.5"></path><path d="M1280.35 686.18L1089.04 495.16" stroke="#132e65" stroke-width="1.5"></path><path d="M1451.18 -44.68L1451.18 -44.68" stroke="#132e65" stroke-width="1.5"></path><path d="M1451.18 -44.68L1420.03 63.36" stroke="#132e65" stroke-width="1.5"></path><path d="M1451.18 -44.68L1563.6 -88.36" stroke="#132e65" stroke-width="1.5"></path><path d="M1451.18 -44.68L1590.47 67.04" stroke="#132e65" stroke-width="1.5"></path><path d="M1420.03 63.36L1420.03 63.36" stroke="#132e65" stroke-width="1.5"></path><path d="M1434.72 231.41L1434.72 231.41" stroke="#132e65" stroke-width="1.5"></path><path d="M1434.72 231.41L1437.36 362.05" stroke="#132e65" stroke-width="1.5"></path><path d="M1434.72 231.41L1588.53 225.03" stroke="#132e65" stroke-width="1.5"></path><path d="M1434.72 231.41L1420.03 63.36" stroke="#132e65" stroke-width="1.5"></path><path d="M1434.72 231.41L1264.42 355.62" stroke="#132e65" stroke-width="1.5"></path><path d="M1437.36 362.05L1437.36 362.05" stroke="#132e65" stroke-width="1.5"></path><path d="M1437.36 362.05L1570.54 399.24" stroke="#132e65" stroke-width="1.5"></path><path d="M1437.36 362.05L1401.63 523.61" stroke="#132e65" stroke-width="1.5"></path><path d="M1401.63 523.61L1401.63 523.61" stroke="#132e65" stroke-width="1.5"></path><path d="M1401.63 523.61L1449.09 646.12" stroke="#132e65" stroke-width="1.5"></path><path d="M1401.63 523.61L1581.09 540.1" stroke="#132e65" stroke-width="1.5"></path><path d="M1401.63 523.61L1570.54 399.24" stroke="#132e65" stroke-width="1.5"></path><path d="M1449.09 646.12L1449.09 646.12" stroke="#132e65" stroke-width="1.5"></path><path d="M1449.09 646.12L1553.96 693.09" stroke="#132e65" stroke-width="1.5"></path><path d="M1449.09 646.12L1581.09 540.1" stroke="#132e65" stroke-width="1.5"></path><path d="M1563.6 -88.36L1563.6 -88.36" stroke="#132e65" stroke-width="1.5"></path><path d="M1590.47 67.04L1590.47 67.04" stroke="#132e65" stroke-width="1.5"></path><path d="M1590.47 67.04L1563.6 -88.36" stroke="#132e65" stroke-width="1.5"></path><path d="M1590.47 67.04L1588.53 225.03" stroke="#132e65" stroke-width="1.5"></path><path d="M1588.53 225.03L1588.53 225.03" stroke="#132e65" stroke-width="1.5"></path><path d="M1588.53 225.03L1570.54 399.24" stroke="#132e65" stroke-width="1.5"></path><path d="M1588.53 225.03L1437.36 362.05" stroke="#132e65" stroke-width="1.5"></path><path d="M1588.53 225.03L1420.03 63.36" stroke="#132e65" stroke-width="1.5"></path><path d="M1588.53 225.03L1451.18 -44.68" stroke="#132e65" stroke-width="1.5"></path><path d="M1570.54 399.24L1570.54 399.24" stroke="#132e65" stroke-width="1.5"></path><path d="M1570.54 399.24L1581.09 540.1" stroke="#132e65" stroke-width="1.5"></path><path d="M1581.09 540.1L1581.09 540.1" stroke="#132e65" stroke-width="1.5"></path><path d="M1581.09 540.1L1553.96 693.09" stroke="#132e65" stroke-width="1.5"></path><path d="M1553.96 693.09L1553.96 693.09" stroke="#132e65" stroke-width="1.5"></path><path d="M1553.96 693.09L1401.63 523.61" stroke="#132e65" stroke-width="1.5"></path><path d="M1553.96 693.09L1280.35 686.18" stroke="#132e65" stroke-width="1.5"></path><path d="M1553.96 693.09L1570.54 399.24" stroke="#132e65" stroke-width="1.5"></path><circle r="5" cx="-89.68" cy="360.39" fill="#132e65"></circle><circle r="5" cx="-70.53" cy="526.06" fill="#132e65"></circle><circle r="5" cx="-73.19" cy="641.16" fill="#132e65"></circle><circle r="5" cx="78.67" cy="404.16" fill="#132e65"></circle><circle r="5" cx="80.35" cy="550.91" fill="#132e65"></circle><circle r="5" cx="43.14" cy="700.66" fill="#132e65"></circle><circle r="5" cx="238.93" cy="375.26" fill="#132e65"></circle><circle r="5" cx="253.44" cy="489.14" fill="#132e65"></circle><circle r="5" cx="216.12" cy="678.76" fill="#132e65"></circle><circle r="5" cx="384.35" cy="388.27" fill="#132e65"></circle><circle r="5" cx="380.45" cy="511.99" fill="#132e65"></circle><circle r="5" cx="383.21" cy="705.33" fill="#132e65"></circle><circle r="5" cx="547.27" cy="381.04" fill="#132e65"></circle><circle r="5" cx="553.09" cy="501.69" fill="#132e65"></circle><circle r="5" cx="529.08" cy="707.74" fill="#132e65"></circle><circle r="5" cx="691.41" cy="390.8" fill="#132e65"></circle><circle r="5" cx="680.06" cy="489.18" fill="#132e65"></circle><circle r="5" cx="683.21" cy="705.73" fill="#132e65"></circle><circle r="5" cx="861.41" cy="222.79" fill="#132e65"></circle><circle r="5" cx="857.06" cy="343.8" fill="#132e65"></circle><circle r="5" cx="809.69" cy="503.51" fill="#132e65"></circle><circle r="5" cx="939.91" cy="52.64" fill="#132e65"></circle><circle r="5" cx="957.71" cy="203.26" fill="#132e65"></circle><circle r="5" cx="949.12" cy="338.28" fill="#132e65"></circle><circle r="5" cx="1011.4" cy="556.14" fill="#132e65"></circle><circle r="5" cx="988.32" cy="638.35" fill="#132e65"></circle><circle r="5" cx="1111" cy="-75.59" fill="#132e65"></circle><circle r="5" cx="1096.8" cy="111.87" fill="#132e65"></circle><circle r="5" cx="1126.85" cy="262.08" fill="#132e65"></circle><circle r="5" cx="1104.93" cy="351.55" fill="#132e65"></circle><circle r="5" cx="1089.04" cy="495.16" fill="#132e65"></circle><circle r="5" cx="1101.81" cy="689.2" fill="#132e65"></circle><circle r="5" cx="1278.38" cy="-104.22" fill="#132e65"></circle><circle r="5" cx="1263.56" cy="62.71" fill="#132e65"></circle><circle r="5" cx="1274.46" cy="217.89" fill="#132e65"></circle><circle r="5" cx="1264.42" cy="355.62" fill="#132e65"></circle><circle r="5" cx="1280.35" cy="686.18" fill="#132e65"></circle><circle r="5" cx="1451.18" cy="-44.68" fill="#132e65"></circle><circle r="5" cx="1420.03" cy="63.36" fill="#132e65"></circle><circle r="5" cx="1434.72" cy="231.41" fill="#132e65"></circle><circle r="5" cx="1437.36" cy="362.05" fill="#132e65"></circle><circle r="5" cx="1401.63" cy="523.61" fill="#132e65"></circle><circle r="5" cx="1449.09" cy="646.12" fill="#132e65"></circle><circle r="5" cx="1563.6" cy="-88.36" fill="#132e65"></circle><circle r="5" cx="1590.47" cy="67.04" fill="#132e65"></circle><circle r="5" cx="1588.53" cy="225.03" fill="#132e65"></circle><circle r="5" cx="1570.54" cy="399.24" fill="#132e65"></circle><circle r="5" cx="1581.09" cy="540.1" fill="#132e65"></circle><circle r="5" cx="1553.96" cy="693.09" fill="#132e65"></circle><path d="M665.01 411.48L665.01 411.48" stroke="hsl(228.5, 77.2%, 51.5%)" stroke-width="1.5"></path><path d="M665.01 411.48L695.86 496.13" stroke="hsl(228.5, 77.2%, 51.5%)" stroke-width="1.5"></path><path d="M665.01 411.48L811.84 497.47" stroke="hsl(228.5, 77.2%, 51.5%)" stroke-width="1.5"></path><path d="M665.01 411.48L856.89 393.92" stroke="hsl(228.5, 77.2%, 51.5%)" stroke-width="1.5"></path><path d="M665.01 411.48L945.38 385.45" stroke="hsl(228.5, 77.2%, 51.5%)" stroke-width="1.5"></path><path d="M665.01 411.48L701.83 691.81" stroke="hsl(228.5, 77.2%, 51.5%)" stroke-width="1.5"></path><path d="M963.09 639.64L963.09 639.64" stroke="hsl(228.5, 77.2%, 51.5%)" stroke-width="1.5"></path><path d="M963.09 639.64L942.31 521.62" stroke="hsl(228.5, 77.2%, 51.5%)" stroke-width="1.5"></path><path d="M963.09 639.64L1125.71 691.89" stroke="hsl(228.5, 77.2%, 51.5%)" stroke-width="1.5"></path><path d="M963.09 639.64L1111.85 549.19" stroke="hsl(228.5, 77.2%, 51.5%)" stroke-width="1.5"></path><path d="M963.09 639.64L796.57 694.69" stroke="hsl(228.5, 77.2%, 51.5%)" stroke-width="1.5"></path><path d="M963.09 639.64L811.84 497.47" stroke="hsl(228.5, 77.2%, 51.5%)" stroke-width="1.5"></path><path d="M1120.1 367.72L1120.1 367.72" stroke="hsl(228.5, 77.2%, 51.5%)" stroke-width="1.5"></path><path d="M1120.1 367.72L1135.97 221.71" stroke="hsl(228.5, 77.2%, 51.5%)" stroke-width="1.5"></path><path d="M1120.1 367.72L1269.19 365.49" stroke="hsl(228.5, 77.2%, 51.5%)" stroke-width="1.5"></path><path d="M1120.1 367.72L945.38 385.45" stroke="hsl(228.5, 77.2%, 51.5%)" stroke-width="1.5"></path><path d="M1120.1 367.72L1250.53 245.18" stroke="hsl(228.5, 77.2%, 51.5%)" stroke-width="1.5"></path><path d="M1120.1 367.72L1111.85 549.19" stroke="hsl(228.5, 77.2%, 51.5%)" stroke-width="1.5"></path><path d="M1120.1 367.72L1258.09 508.42" stroke="hsl(228.5, 77.2%, 51.5%)" stroke-width="1.5"></path><path d="M1260.59 -70.68L1260.59 -70.68" stroke="hsl(228.5, 77.2%, 51.5%)" stroke-width="1.5"></path><path d="M1260.59 -70.68L1274.15 64.49" stroke="hsl(228.5, 77.2%, 51.5%)" stroke-width="1.5"></path><path d="M1260.59 -70.68L1423.11 -73.11" stroke="hsl(228.5, 77.2%, 51.5%)" stroke-width="1.5"></path><path d="M1260.59 -70.68L1150.43 84.46" stroke="hsl(228.5, 77.2%, 51.5%)" stroke-width="1.5"></path><path d="M1260.59 -70.68L1408.89 75.16" stroke="hsl(228.5, 77.2%, 51.5%)" stroke-width="1.5"></path><path d="M1260.59 -70.68L1250.53 245.18" stroke="hsl(228.5, 77.2%, 51.5%)" stroke-width="1.5"></path><path d="M1260.59 -70.68L1575.42 -108.92" stroke="hsl(228.5, 77.2%, 51.5%)" stroke-width="1.5"></path><path d="M1250.53 245.18L1250.53 245.18" stroke="hsl(228.5, 77.2%, 51.5%)" stroke-width="1.5"></path><path d="M1250.53 245.18L1135.97 221.71" stroke="hsl(228.5, 77.2%, 51.5%)" stroke-width="1.5"></path><path d="M1250.53 245.18L1269.19 365.49" stroke="hsl(228.5, 77.2%, 51.5%)" stroke-width="1.5"></path><path d="M1269.19 365.49L1269.19 365.49" stroke="hsl(228.5, 77.2%, 51.5%)" stroke-width="1.5"></path><path d="M1269.19 365.49L1408.88 378.48" stroke="hsl(228.5, 77.2%, 51.5%)" stroke-width="1.5"></path><path d="M1269.19 365.49L1258.09 508.42" stroke="hsl(228.5, 77.2%, 51.5%)" stroke-width="1.5"></path><path d="M1398.11 709.41L1398.11 709.41" stroke="hsl(228.5, 77.2%, 51.5%)" stroke-width="1.5"></path><path d="M1398.11 709.41L1262.56 697.46" stroke="hsl(228.5, 77.2%, 51.5%)" stroke-width="1.5"></path><path d="M1398.11 709.41L1577.62 710.89" stroke="hsl(228.5, 77.2%, 51.5%)" stroke-width="1.5"></path><path d="M1398.11 709.41L1394.5 514.96" stroke="hsl(228.5, 77.2%, 51.5%)" stroke-width="1.5"></path><path d="M1398.11 709.41L1258.09 508.42" stroke="hsl(228.5, 77.2%, 51.5%)" stroke-width="1.5"></path><path d="M1398.11 709.41L1125.71 691.89" stroke="hsl(228.5, 77.2%, 51.5%)" stroke-width="1.5"></path><path d="M-81.62 530.71L-81.62 530.71" stroke="hsl(228.5, 77.2%, 51.5%)" stroke-width="1.5"></path><path d="M-81.62 530.71L-65.39 664.3" stroke="hsl(228.5, 77.2%, 51.5%)" stroke-width="1.5"></path><path d="M-65.39 664.3L-65.39 664.3" stroke="hsl(228.5, 77.2%, 51.5%)" stroke-width="1.5"></path><path d="M-65.39 664.3L57.51 651.11" stroke="hsl(228.5, 77.2%, 51.5%)" stroke-width="1.5"></path><path d="M-65.39 664.3L104.35 515.56" stroke="hsl(228.5, 77.2%, 51.5%)" stroke-width="1.5"></path><path d="M-65.39 664.3L203.19 638.24" stroke="hsl(228.5, 77.2%, 51.5%)" stroke-width="1.5"></path><path d="M-65.39 664.3L246.94 550.99" stroke="hsl(228.5, 77.2%, 51.5%)" stroke-width="1.5"></path><path d="M-65.39 664.3L361.14 683.74" stroke="hsl(228.5, 77.2%, 51.5%)" stroke-width="1.5"></path><path d="M104.35 515.56L104.35 515.56" stroke="hsl(228.5, 77.2%, 51.5%)" stroke-width="1.5"></path><path d="M104.35 515.56L57.51 651.11" stroke="hsl(228.5, 77.2%, 51.5%)" stroke-width="1.5"></path><path d="M104.35 515.56L246.94 550.99" stroke="hsl(228.5, 77.2%, 51.5%)" stroke-width="1.5"></path><path d="M104.35 515.56L203.19 638.24" stroke="hsl(228.5, 77.2%, 51.5%)" stroke-width="1.5"></path><path d="M104.35 515.56L-81.62 530.71" stroke="hsl(228.5, 77.2%, 51.5%)" stroke-width="1.5"></path><path d="M57.51 651.11L57.51 651.11" stroke="hsl(228.5, 77.2%, 51.5%)" stroke-width="1.5"></path><path d="M57.51 651.11L203.19 638.24" stroke="hsl(228.5, 77.2%, 51.5%)" stroke-width="1.5"></path><path d="M57.51 651.11L-81.62 530.71" stroke="hsl(228.5, 77.2%, 51.5%)" stroke-width="1.5"></path><path d="M57.51 651.11L246.94 550.99" stroke="hsl(228.5, 77.2%, 51.5%)" stroke-width="1.5"></path><path d="M57.51 651.11L361.14 683.74" stroke="hsl(228.5, 77.2%, 51.5%)" stroke-width="1.5"></path><path d="M246.94 550.99L246.94 550.99" stroke="hsl(228.5, 77.2%, 51.5%)" stroke-width="1.5"></path><path d="M246.94 550.99L203.19 638.24" stroke="hsl(228.5, 77.2%, 51.5%)" stroke-width="1.5"></path><path d="M246.94 550.99L361.14 683.74" stroke="hsl(228.5, 77.2%, 51.5%)" stroke-width="1.5"></path><path d="M246.94 550.99L515.33 676.12" stroke="hsl(228.5, 77.2%, 51.5%)" stroke-width="1.5"></path><path d="M246.94 550.99L-81.62 530.71" stroke="hsl(228.5, 77.2%, 51.5%)" stroke-width="1.5"></path><path d="M203.19 638.24L203.19 638.24" stroke="hsl(228.5, 77.2%, 51.5%)" stroke-width="1.5"></path><path d="M203.19 638.24L361.14 683.74" stroke="hsl(228.5, 77.2%, 51.5%)" stroke-width="1.5"></path><path d="M203.19 638.24L-81.62 530.71" stroke="hsl(228.5, 77.2%, 51.5%)" stroke-width="1.5"></path><path d="M361.14 683.74L361.14 683.74" stroke="hsl(228.5, 77.2%, 51.5%)" stroke-width="1.5"></path><path d="M361.14 683.74L515.33 676.12" stroke="hsl(228.5, 77.2%, 51.5%)" stroke-width="1.5"></path><path d="M515.33 676.12L515.33 676.12" stroke="hsl(228.5, 77.2%, 51.5%)" stroke-width="1.5"></path><path d="M515.33 676.12L701.83 691.81" stroke="hsl(228.5, 77.2%, 51.5%)" stroke-width="1.5"></path><path d="M515.33 676.12L695.86 496.13" stroke="hsl(228.5, 77.2%, 51.5%)" stroke-width="1.5"></path><path d="M515.33 676.12L796.57 694.69" stroke="hsl(228.5, 77.2%, 51.5%)" stroke-width="1.5"></path><path d="M695.86 496.13L695.86 496.13" stroke="hsl(228.5, 77.2%, 51.5%)" stroke-width="1.5"></path><path d="M695.86 496.13L811.84 497.47" stroke="hsl(228.5, 77.2%, 51.5%)" stroke-width="1.5"></path><path d="M695.86 496.13L856.89 393.92" stroke="hsl(228.5, 77.2%, 51.5%)" stroke-width="1.5"></path><path d="M695.86 496.13L701.83 691.81" stroke="hsl(228.5, 77.2%, 51.5%)" stroke-width="1.5"></path><path d="M695.86 496.13L796.57 694.69" stroke="hsl(228.5, 77.2%, 51.5%)" stroke-width="1.5"></path><path d="M695.86 496.13L942.31 521.62" stroke="hsl(228.5, 77.2%, 51.5%)" stroke-width="1.5"></path><path d="M701.83 691.81L701.83 691.81" stroke="hsl(228.5, 77.2%, 51.5%)" stroke-width="1.5"></path><path d="M701.83 691.81L796.57 694.69" stroke="hsl(228.5, 77.2%, 51.5%)" stroke-width="1.5"></path><path d="M701.83 691.81L811.84 497.47" stroke="hsl(228.5, 77.2%, 51.5%)" stroke-width="1.5"></path><path d="M701.83 691.81L963.09 639.64" stroke="hsl(228.5, 77.2%, 51.5%)" stroke-width="1.5"></path><path d="M856.89 393.92L856.89 393.92" stroke="hsl(228.5, 77.2%, 51.5%)" stroke-width="1.5"></path><path d="M856.89 393.92L945.38 385.45" stroke="hsl(228.5, 77.2%, 51.5%)" stroke-width="1.5"></path><path d="M856.89 393.92L811.84 497.47" stroke="hsl(228.5, 77.2%, 51.5%)" stroke-width="1.5"></path><path d="M856.89 393.92L942.31 521.62" stroke="hsl(228.5, 77.2%, 51.5%)" stroke-width="1.5"></path><path d="M811.84 497.47L811.84 497.47" stroke="hsl(228.5, 77.2%, 51.5%)" stroke-width="1.5"></path><path d="M811.84 497.47L942.31 521.62" stroke="hsl(228.5, 77.2%, 51.5%)" stroke-width="1.5"></path><path d="M796.57 694.69L796.57 694.69" stroke="hsl(228.5, 77.2%, 51.5%)" stroke-width="1.5"></path><path d="M796.57 694.69L811.84 497.47" stroke="hsl(228.5, 77.2%, 51.5%)" stroke-width="1.5"></path><path d="M945.38 385.45L945.38 385.45" stroke="hsl(228.5, 77.2%, 51.5%)" stroke-width="1.5"></path><path d="M945.38 385.45L942.31 521.62" stroke="hsl(228.5, 77.2%, 51.5%)" stroke-width="1.5"></path><path d="M945.38 385.45L811.84 497.47" stroke="hsl(228.5, 77.2%, 51.5%)" stroke-width="1.5"></path><path d="M945.38 385.45L1111.85 549.19" stroke="hsl(228.5, 77.2%, 51.5%)" stroke-width="1.5"></path><path d="M945.38 385.45L1135.97 221.71" stroke="hsl(228.5, 77.2%, 51.5%)" stroke-width="1.5"></path><path d="M942.31 521.62L942.31 521.62" stroke="hsl(228.5, 77.2%, 51.5%)" stroke-width="1.5"></path><path d="M1150.43 84.46L1150.43 84.46" stroke="hsl(228.5, 77.2%, 51.5%)" stroke-width="1.5"></path><path d="M1150.43 84.46L1274.15 64.49" stroke="hsl(228.5, 77.2%, 51.5%)" stroke-width="1.5"></path><path d="M1150.43 84.46L1135.97 221.71" stroke="hsl(228.5, 77.2%, 51.5%)" stroke-width="1.5"></path><path d="M1135.97 221.71L1135.97 221.71" stroke="hsl(228.5, 77.2%, 51.5%)" stroke-width="1.5"></path><path d="M1135.97 221.71L1269.19 365.49" stroke="hsl(228.5, 77.2%, 51.5%)" stroke-width="1.5"></path><path d="M1135.97 221.71L1274.15 64.49" stroke="hsl(228.5, 77.2%, 51.5%)" stroke-width="1.5"></path><path d="M1111.85 549.19L1111.85 549.19" stroke="hsl(228.5, 77.2%, 51.5%)" stroke-width="1.5"></path><path d="M1111.85 549.19L1125.71 691.89" stroke="hsl(228.5, 77.2%, 51.5%)" stroke-width="1.5"></path><path d="M1111.85 549.19L1258.09 508.42" stroke="hsl(228.5, 77.2%, 51.5%)" stroke-width="1.5"></path><path d="M1111.85 549.19L942.31 521.62" stroke="hsl(228.5, 77.2%, 51.5%)" stroke-width="1.5"></path><path d="M1125.71 691.89L1125.71 691.89" stroke="hsl(228.5, 77.2%, 51.5%)" stroke-width="1.5"></path><path d="M1125.71 691.89L1262.56 697.46" stroke="hsl(228.5, 77.2%, 51.5%)" stroke-width="1.5"></path><path d="M1125.71 691.89L1258.09 508.42" stroke="hsl(228.5, 77.2%, 51.5%)" stroke-width="1.5"></path><path d="M1125.71 691.89L942.31 521.62" stroke="hsl(228.5, 77.2%, 51.5%)" stroke-width="1.5"></path><path d="M1274.15 64.49L1274.15 64.49" stroke="hsl(228.5, 77.2%, 51.5%)" stroke-width="1.5"></path><path d="M1274.15 64.49L1408.89 75.16" stroke="hsl(228.5, 77.2%, 51.5%)" stroke-width="1.5"></path><path d="M1274.15 64.49L1250.53 245.18" stroke="hsl(228.5, 77.2%, 51.5%)" stroke-width="1.5"></path><path d="M1274.15 64.49L1423.11 -73.11" stroke="hsl(228.5, 77.2%, 51.5%)" stroke-width="1.5"></path><path d="M1258.09 508.42L1258.09 508.42" stroke="hsl(228.5, 77.2%, 51.5%)" stroke-width="1.5"></path><path d="M1258.09 508.42L1394.5 514.96" stroke="hsl(228.5, 77.2%, 51.5%)" stroke-width="1.5"></path><path d="M1258.09 508.42L1262.56 697.46" stroke="hsl(228.5, 77.2%, 51.5%)" stroke-width="1.5"></path><path d="M1258.09 508.42L1408.88 378.48" stroke="hsl(228.5, 77.2%, 51.5%)" stroke-width="1.5"></path><path d="M1262.56 697.46L1262.56 697.46" stroke="hsl(228.5, 77.2%, 51.5%)" stroke-width="1.5"></path><path d="M1262.56 697.46L1111.85 549.19" stroke="hsl(228.5, 77.2%, 51.5%)" stroke-width="1.5"></path><path d="M1262.56 697.46L1394.5 514.96" stroke="hsl(228.5, 77.2%, 51.5%)" stroke-width="1.5"></path><path d="M1262.56 697.46L963.09 639.64" stroke="hsl(228.5, 77.2%, 51.5%)" stroke-width="1.5"></path><path d="M1423.11 -73.11L1423.11 -73.11" stroke="hsl(228.5, 77.2%, 51.5%)" stroke-width="1.5"></path><path d="M1423.11 -73.11L1408.89 75.16" stroke="hsl(228.5, 77.2%, 51.5%)" stroke-width="1.5"></path><path d="M1423.11 -73.11L1575.42 -108.92" stroke="hsl(228.5, 77.2%, 51.5%)" stroke-width="1.5"></path><path d="M1423.11 -73.11L1552.59 56.97" stroke="hsl(228.5, 77.2%, 51.5%)" stroke-width="1.5"></path><path d="M1408.89 75.16L1408.89 75.16" stroke="hsl(228.5, 77.2%, 51.5%)" stroke-width="1.5"></path><path d="M1408.89 75.16L1552.59 56.97" stroke="hsl(228.5, 77.2%, 51.5%)" stroke-width="1.5"></path><path d="M1434.07 262.25L1434.07 262.25" stroke="hsl(228.5, 77.2%, 51.5%)" stroke-width="1.5"></path><path d="M1434.07 262.25L1408.88 378.48" stroke="hsl(228.5, 77.2%, 51.5%)" stroke-width="1.5"></path><path d="M1434.07 262.25L1600.26 238.33" stroke="hsl(228.5, 77.2%, 51.5%)" stroke-width="1.5"></path><path d="M1408.88 378.48L1408.88 378.48" stroke="hsl(228.5, 77.2%, 51.5%)" stroke-width="1.5"></path><path d="M1408.88 378.48L1394.5 514.96" stroke="hsl(228.5, 77.2%, 51.5%)" stroke-width="1.5"></path><path d="M1394.5 514.96L1394.5 514.96" stroke="hsl(228.5, 77.2%, 51.5%)" stroke-width="1.5"></path><path d="M1394.5 514.96L1269.19 365.49" stroke="hsl(228.5, 77.2%, 51.5%)" stroke-width="1.5"></path><path d="M1394.5 514.96L1607.45 500.55" stroke="hsl(228.5, 77.2%, 51.5%)" stroke-width="1.5"></path><path d="M1575.42 -108.92L1575.42 -108.92" stroke="hsl(228.5, 77.2%, 51.5%)" stroke-width="1.5"></path><path d="M1575.42 -108.92L1552.59 56.97" stroke="hsl(228.5, 77.2%, 51.5%)" stroke-width="1.5"></path><path d="M1575.42 -108.92L1408.89 75.16" stroke="hsl(228.5, 77.2%, 51.5%)" stroke-width="1.5"></path><path d="M1575.42 -108.92L1274.15 64.49" stroke="hsl(228.5, 77.2%, 51.5%)" stroke-width="1.5"></path><path d="M1575.42 -108.92L1600.26 238.33" stroke="hsl(228.5, 77.2%, 51.5%)" stroke-width="1.5"></path><path d="M1552.59 56.97L1552.59 56.97" stroke="hsl(228.5, 77.2%, 51.5%)" stroke-width="1.5"></path><path d="M1552.59 56.97L1600.26 238.33" stroke="hsl(228.5, 77.2%, 51.5%)" stroke-width="1.5"></path><path d="M1552.59 56.97L1434.07 262.25" stroke="hsl(228.5, 77.2%, 51.5%)" stroke-width="1.5"></path><path d="M1552.59 56.97L1274.15 64.49" stroke="hsl(228.5, 77.2%, 51.5%)" stroke-width="1.5"></path><path d="M1600.26 238.33L1600.26 238.33" stroke="hsl(228.5, 77.2%, 51.5%)" stroke-width="1.5"></path><path d="M1600.26 238.33L1608.41 344.17" stroke="hsl(228.5, 77.2%, 51.5%)" stroke-width="1.5"></path><path d="M1600.26 238.33L1408.88 378.48" stroke="hsl(228.5, 77.2%, 51.5%)" stroke-width="1.5"></path><path d="M1608.41 344.17L1608.41 344.17" stroke="hsl(228.5, 77.2%, 51.5%)" stroke-width="1.5"></path><path d="M1608.41 344.17L1607.45 500.55" stroke="hsl(228.5, 77.2%, 51.5%)" stroke-width="1.5"></path><path d="M1608.41 344.17L1434.07 262.25" stroke="hsl(228.5, 77.2%, 51.5%)" stroke-width="1.5"></path><path d="M1608.41 344.17L1408.88 378.48" stroke="hsl(228.5, 77.2%, 51.5%)" stroke-width="1.5"></path><path d="M1608.41 344.17L1394.5 514.96" stroke="hsl(228.5, 77.2%, 51.5%)" stroke-width="1.5"></path><path d="M1607.45 500.55L1607.45 500.55" stroke="hsl(228.5, 77.2%, 51.5%)" stroke-width="1.5"></path><path d="M1607.45 500.55L1577.62 710.89" stroke="hsl(228.5, 77.2%, 51.5%)" stroke-width="1.5"></path><path d="M1577.62 710.89L1577.62 710.89" stroke="hsl(228.5, 77.2%, 51.5%)" stroke-width="1.5"></path><path d="M1577.62 710.89L1394.5 514.96" stroke="hsl(228.5, 77.2%, 51.5%)" stroke-width="1.5"></path><path d="M1577.62 710.89L1262.56 697.46" stroke="hsl(228.5, 77.2%, 51.5%)" stroke-width="1.5"></path><circle r="25" cx="665.01" cy="411.48" fill="url(&quot;#SvgjsRadialGradient1001&quot;)"></circle><circle r="25" cx="963.09" cy="639.64" fill="url(&quot;#SvgjsRadialGradient1001&quot;)"></circle><circle r="25" cx="1120.1" cy="367.72" fill="url(&quot;#SvgjsRadialGradient1001&quot;)"></circle><circle r="25" cx="1260.59" cy="-70.68" fill="url(&quot;#SvgjsRadialGradient1001&quot;)"></circle><circle r="25" cx="1250.53" cy="245.18" fill="url(&quot;#SvgjsRadialGradient1001&quot;)"></circle><circle r="25" cx="1269.19" cy="365.49" fill="url(&quot;#SvgjsRadialGradient1001&quot;)"></circle><circle r="25" cx="1398.11" cy="709.41" fill="url(&quot;#SvgjsRadialGradient1001&quot;)"></circle><circle r="5" cx="-81.62" cy="530.71" fill="#8b9ad9"></circle><circle r="5" cx="-65.39" cy="664.3" fill="#8b9ad9"></circle><circle r="5" cx="104.35" cy="515.56" fill="#8b9ad9"></circle><circle r="5" cx="57.51" cy="651.11" fill="#8b9ad9"></circle><circle r="5" cx="246.94" cy="550.99" fill="#8b9ad9"></circle><circle r="5" cx="203.19" cy="638.24" fill="#8b9ad9"></circle><circle r="5" cx="361.14" cy="683.74" fill="#8b9ad9"></circle><circle r="5" cx="515.33" cy="676.12" fill="#8b9ad9"></circle><circle r="5" cx="695.86" cy="496.13" fill="#8b9ad9"></circle><circle r="5" cx="701.83" cy="691.81" fill="#8b9ad9"></circle><circle r="5" cx="856.89" cy="393.92" fill="#8b9ad9"></circle><circle r="5" cx="811.84" cy="497.47" fill="#8b9ad9"></circle><circle r="5" cx="796.57" cy="694.69" fill="#8b9ad9"></circle><circle r="5" cx="945.38" cy="385.45" fill="#8b9ad9"></circle><circle r="5" cx="942.31" cy="521.62" fill="#8b9ad9"></circle><circle r="5" cx="1150.43" cy="84.46" fill="#8b9ad9"></circle><circle r="5" cx="1135.97" cy="221.71" fill="#8b9ad9"></circle><circle r="5" cx="1111.85" cy="549.19" fill="#8b9ad9"></circle><circle r="5" cx="1125.71" cy="691.89" fill="#8b9ad9"></circle><circle r="5" cx="1274.15" cy="64.49" fill="#8b9ad9"></circle><circle r="5" cx="1258.09" cy="508.42" fill="#8b9ad9"></circle><circle r="5" cx="1262.56" cy="697.46" fill="#8b9ad9"></circle><circle r="5" cx="1423.11" cy="-73.11" fill="#8b9ad9"></circle><circle r="5" cx="1408.89" cy="75.16" fill="#8b9ad9"></circle><circle r="5" cx="1434.07" cy="262.25" fill="#8b9ad9"></circle><circle r="5" cx="1408.88" cy="378.48" fill="#8b9ad9"></circle><circle r="5" cx="1394.5" cy="514.96" fill="#8b9ad9"></circle><circle r="5" cx="1575.42" cy="-108.92" fill="#8b9ad9"></circle><circle r="5" cx="1552.59" cy="56.97" fill="#8b9ad9"></circle><circle r="5" cx="1600.26" cy="238.33" fill="#8b9ad9"></circle><circle r="5" cx="1608.41" cy="344.17" fill="#8b9ad9"></circle><circle r="5" cx="1607.45" cy="500.55" fill="#8b9ad9"></circle><circle r="5" cx="1577.62" cy="710.89" fill="#8b9ad9"></circle></g><defs><mask id="SvgjsMask1000"><rect width="1440" height="560" fill="#ffffff"></rect></mask><radialGradient id="SvgjsRadialGradient1001"><stop stop-color="#ffffff" offset="0.1"></stop><stop stop-color="#1735b3" offset="0.2"></stop><stop stop-color="rgba(23, 53, 179, 0)" offset="1"></stop></radialGradient></defs></svg>