<svg xmlns="http://www.w3.org/2000/svg" version="1.1" xmlns:xlink="http://www.w3.org/1999/xlink" xmlns:svgjs="http://svgjs.dev/svgjs" width="1440" height="560" preserveAspectRatio="none" viewBox="0 0 1440 560"><g mask="url(&quot;#SvgjsMask1020&quot;)" fill="none"><rect width="1440" height="560" x="0" y="0" fill="url(&quot;#SvgjsLinearGradient1021&quot;)"></rect><path d="M0 0L549.2 0L0 151.25z" fill="rgba(255, 255, 255, .1)"></path><path d="M0 151.25L549.2 0L911.3000000000001 0L0 188.16z" fill="rgba(255, 255, 255, .075)"></path><path d="M0 188.16L911.3000000000001 0L1183.0900000000001 0L0 236.98z" fill="rgba(255, 255, 255, .05)"></path><path d="M0 236.98L1183.0900000000001 0L1187.2700000000002 0L0 332.15999999999997z" fill="rgba(255, 255, 255, .025)"></path><path d="M1440 560L1060.05 560L1440 421z" fill="rgba(0, 0, 0, .1)"></path><path d="M1440 421L1060.05 560L849.8 560L1440 197.37z" fill="rgba(0, 0, 0, .075)"></path><path d="M1440 197.37L849.8 560L419.16999999999996 560L1440 78.80000000000001z" fill="rgba(0, 0, 0, .05)"></path><path d="M1440 78.80000000000001L419.16999999999996 560L200.62999999999997 560L1440 28.38000000000001z" fill="rgba(0, 0, 0, .025)"></path></g><defs><mask id="SvgjsMask1020"><rect width="1440" height="560" fill="#ffffff"></rect></mask><linearGradient x1="15.28%" y1="-39.29%" x2="84.72%" y2="139.29%" gradientUnits="userSpaceOnUse" id="SvgjsLinearGradient1021"><stop stop-color="#0e2a47" offset="0"></stop><stop stop-color="rgba(0, 0, 0, 1)" offset="1"></stop></linearGradient></defs></svg>